<?xml version="1.0" encoding="UTF-8"?>
<svg width="20px" height="20px" viewBox="0 0 20 20" version="1.1" xmlns="http://www.w3.org/2000/svg" xmlns:xlink="http://www.w3.org/1999/xlink">
    <title>download</title>
    <g id="页面-1" stroke="none" stroke-width="1" fill="none" fill-rule="evenodd">
        <g id="download">
            <rect id="矩形" x="0" y="0" width="20" height="20"></rect>
            <g id="编组" transform="translate(1.15, 2.4)" fill="#0D0C21" fill-rule="nonzero">
                <path d="M16.9,4.8 C17.3424681,4.8 17.7,5.16774713 17.7,5.62 L17.7,10.42 C17.7,13.0593005 15.6187644,15.2 13.05,15.2 L4.65,15.2 C2.08123564,15.2 0,13.0593005 0,10.42 L0,5.62 C0,5.16774713 0.357531931,4.8 0.8,4.8 C1.24246807,4.8 1.6,5.16774713 1.6,5.62 L1.6,10.42 C1.6,12.1547947 2.96617178,13.56 4.65,13.56 L13.05,13.56 C14.7338282,13.56 16.1,12.1547947 16.1,10.42 L16.1,5.62 C16.1,5.16774713 16.4575319,4.8 16.9,4.8 Z M8.81132865,0 C9.32874066,0 9.64924531,0.418119602 9.64924531,0.9955 L9.649,7.777 L10.7829023,6.26090397 C11.0848635,5.85403273 11.5423182,5.75648988 11.9444017,6.00704813 L12.043647,6.07696223 C12.4586954,6.404094 12.495408,6.9117227 12.1637303,7.35863095 L9.63078571,10.7243904 C9.24075034,11.2459234 8.384489,11.2459234 7.99791863,10.7246751 L5.46155318,7.35824297 C5.13443621,6.91915853 5.18872564,6.40744723 5.60959087,6.07699726 C6.03286615,5.74299291 6.51488226,5.8192311 6.8425014,6.26067517 L7.974,7.776 L7.97487031,0.9955 C7.97487031,0.458717006 8.25067971,0.0604519192 8.70368769,0.00629559557 L8.81132865,0 Z" id="形状结合"></path>
            </g>
        </g>
    </g>
</svg>