<?xml version="1.0" encoding="UTF-8"?>
<svg width="20px" height="20px" viewBox="0 0 20 20" version="1.1" xmlns="http://www.w3.org/2000/svg" xmlns:xlink="http://www.w3.org/1999/xlink">
    <title>share</title>
    <g id="页面-1" stroke="none" stroke-width="1" fill="none" fill-rule="evenodd">
        <g id="share">
            <rect id="矩形备份" x="0" y="0" width="20" height="20"></rect>
            <g id="编组" transform="translate(2, 2)" fill="#0D0C21" fill-rule="nonzero">
                <path d="M7.99903183,-0.25 C8.45854268,-0.25 8.82993465,0.121436917 8.82993465,0.58097313 C8.82993465,1.04050934 8.45854268,1.41194626 7.99903183,1.41194626 C4.36637114,1.41194626 1.4098693,4.3682281 1.4098693,8.00193658 C1.4098693,11.6310926 4.36762863,14.5880537 7.99903183,14.5880537 C11.6316925,14.5880537 14.5881944,11.6317719 14.5881944,7.99806342 C14.5881944,7.53852721 14.9595863,7.16709029 15.4190972,7.16709029 C15.878608,7.16709029 16.25,7.53852721 16.25,7.99806342 C16.25,9.11334281 16.0317556,10.1941353 15.6009605,11.2094183 C15.1857399,12.1916936 14.5906167,13.0746755 13.8338127,13.8315711 C13.0770071,14.5884683 12.1941284,15.183666 11.2121156,15.598876 C10.1924418,16.0307902 9.11160676,16.25 7.99903183,16.25 C6.88387575,16.25 5.803203,16.031727 4.7880338,15.6008759 C3.80587158,15.1856026 2.92299289,14.5904049 2.16618731,13.8335077 C1.40938328,13.0766121 0.814260116,12.1936302 0.399102734,11.2115043 C-0.0317667451,10.1940505 -0.25,9.11331307 -0.25,8 C-0.25,6.88593965 -0.0314799636,5.80327849 0.39903952,4.7886451 C0.814260116,3.80636981 1.40938328,2.92338793 2.16618731,2.16649229 C2.92299289,1.40959512 3.80587158,0.814397447 4.78788437,0.399187379 C5.80522415,-0.0317380911 6.88584184,-0.25 7.99903183,-0.25 Z M13.0310835,2.29516367 L14.4251952,3.70299968 C14.7300127,4.01062545 14.7468511,4.50320876 14.4638678,4.83062129 L13.071933,6.44117118 C12.9147324,6.62820837 12.6838991,6.73172355 12.4429384,6.73172355 C12.2446262,6.73172355 12.0539707,6.66192799 11.8999595,6.52951536 C11.5534373,6.23008391 11.5148428,5.70427672 11.8141662,5.35779558 L12.024,5.114 L10.9577635,5.11468168 C9.64164809,5.11468168 8.57046472,6.1859947 8.57046472,7.50229969 L8.57046472,9.24134592 C8.57046472,9.70088213 8.19907276,10.0723191 7.7395619,10.0723191 C7.28005105,10.0723191 6.90865908,9.70088213 6.90865908,9.24134592 L6.90865908,7.50229969 C6.90865908,6.42519928 7.33187826,5.4068573 8.0972051,4.64143783 C8.86377666,3.87477349 9.8797915,3.45273542 10.9577635,3.45273542 L11.841,3.452 L11.7701888,3.36975397 C11.5523617,3.0727954 11.5565667,2.66493246 11.7814877,2.37402244 L11.8564001,2.28968255 C12.1830444,1.96576727 12.709842,1.96834152 13.0310835,2.29516367 Z" id="形状结合"></path>
            </g>
        </g>
    </g>
</svg>